<svg width="72" height="34" viewBox="0 0 72 34" fill="none" xmlns="http://www.w3.org/2000/svg">
<g clip-path="url(#clip0_751_3048)">
<path d="M71.4971 6.48286C71.4148 6.85511 71.3325 7.22252 71.2549 7.59476C71.0854 8.4166 70.9159 9.23844 70.7415 10.0603C70.7221 10.1521 70.6882 10.2585 70.693 10.3358C70.693 10.5824 70.5671 10.5969 70.3733 10.5969C68.7603 10.5921 67.1424 10.5921 65.5294 10.5969C65.3647 10.5969 65.2775 10.6114 65.3356 10.3745C65.5487 9.514 65.7328 8.64865 65.9072 7.77847C66.0138 7.24669 66.2027 6.72941 66.2172 6.18313C66.2317 5.77221 66.0525 5.50632 65.7425 5.42414C65.4712 5.35162 65.0934 5.5595 64.9045 5.86406C64.5848 6.37651 64.4782 6.95179 64.3716 7.52708C64.2699 8.07336 64.2941 8.62448 64.2748 9.1756C64.2554 9.62036 64.391 10.0361 64.4831 10.4567C64.7349 11.6121 65.0111 12.7627 65.2532 13.9229C65.3986 14.6191 65.573 15.3104 65.7328 16.0065C65.975 17.0846 66.2172 18.1627 66.4594 19.2407C66.6968 20.3043 66.9632 21.363 67.1715 22.4314C67.2635 22.91 67.3362 23.4031 67.3313 23.8962C67.3265 24.2153 67.3894 24.5295 67.3846 24.8534C67.3604 26.4342 67.1521 27.9861 66.5514 29.4605C66.0719 30.6353 65.3695 31.6698 64.4007 32.4917C63.553 33.212 62.56 33.6471 61.4653 33.855C60.7677 33.9855 60.0702 34.029 59.3678 33.9903C57.8904 33.9033 56.5874 33.3957 55.5992 32.2548C55.0324 31.6022 54.7031 30.8287 54.5916 29.9633C54.5335 29.5234 54.548 29.0835 54.5577 28.6435C54.5674 28.1456 54.7079 27.667 54.8145 27.1836C55.0373 26.1828 55.2504 25.1773 55.4732 24.1718C55.512 23.9881 55.5895 23.8092 55.604 23.6255C55.6186 23.4128 55.73 23.4079 55.8898 23.4079C57.5029 23.4128 59.1208 23.4128 60.7338 23.4079C60.913 23.4079 60.9809 23.4418 60.9373 23.6351C60.6805 24.7809 60.4335 25.9315 60.1671 27.0772C60.1089 27.3189 60.0799 27.5558 60.075 27.8024C60.075 28.0392 60.1525 28.2326 60.3608 28.3341C60.603 28.4502 60.8307 28.4018 61.0438 28.2278C61.3151 28.0054 61.4507 27.696 61.5621 27.3914C61.7704 26.8161 61.8431 26.2022 61.9303 25.5931C62.0514 24.7615 61.7462 24.0074 61.6009 23.2242C61.4362 22.3444 61.2376 21.4742 61.0438 20.5992C60.8646 19.7628 60.6708 18.9313 60.4916 18.095C60.2833 17.1426 60.0896 16.1951 59.8813 15.2427C59.7311 14.5514 59.5761 13.8649 59.4308 13.1736C59.2612 12.3663 59.0675 11.5686 58.9512 10.7468C58.8301 9.90075 58.835 9.0499 58.8737 8.20389C58.9367 6.92762 59.1886 5.68036 59.6875 4.49111C60.1283 3.44689 60.729 2.50419 61.567 1.73069C62.4195 0.947528 63.4077 0.439922 64.546 0.19337C65.2533 0.0435047 65.9653 -0.0290106 66.6822 0.0096642C67.8109 0.0676764 68.8426 0.396412 69.7242 1.15057C70.5477 1.85155 71.0418 2.74591 71.347 3.75629C71.4196 3.998 71.4535 4.25423 71.5068 4.50078C71.4971 5.16308 71.4971 5.82056 71.4971 6.48286Z" fill="#1DB954"/>
<path d="M4.44073e-05 33.0235C0.179272 32.8978 0.135676 32.6803 0.174428 32.511C0.440847 31.3266 0.668514 30.1325 0.920401 28.9433C1.119 28.0054 1.33698 27.0772 1.53559 26.1394C1.77294 25.0275 1.99092 23.9107 2.22828 22.7988C2.46079 21.7159 2.70783 20.6427 2.94034 19.5598C3.15832 18.5398 3.36661 17.5197 3.57975 16.4948C3.88492 15.03 4.19009 13.5604 4.50495 12.0956C4.77137 10.8531 5.05716 9.61556 5.31874 8.37313C5.6675 6.72945 5.99205 5.08577 6.34566 3.44209C6.54426 2.53806 6.74287 1.63404 6.92209 0.725182C6.95116 0.594655 7.00928 0.52214 7.17398 0.526974C9.26658 0.536643 11.3543 0.507636 13.4469 0.541477C14.3673 0.55598 15.215 0.875047 15.9416 1.47934C16.9249 2.29151 17.4868 3.33573 17.7145 4.55399C17.8889 5.49669 17.8598 6.44422 17.6418 7.38692C17.3657 8.57134 17.1526 9.77026 16.9007 10.9595C16.6827 11.9796 16.4357 12.9948 16.2322 14.0148C16.0482 14.9285 15.7866 15.8084 15.3506 16.635C15.0745 17.1571 14.7306 17.6357 14.3285 18.0805C13.849 18.6075 13.3016 19.0425 12.6767 19.3713C12.1487 19.6468 11.5772 19.8257 10.9862 19.9321C10.0949 20.0868 9.19392 20.0094 8.29294 20.0191C8.12824 20.0191 8.07012 20.0868 8.04105 20.2173C7.84245 21.1697 7.65353 22.122 7.45493 23.0744C7.28055 23.9011 7.10132 24.7326 6.92209 25.5592C6.72833 26.4729 6.52973 27.3866 6.34082 28.3003C6.17128 29.1173 6.02111 29.9343 5.85157 30.7465C5.68203 31.578 5.49312 32.4047 5.32358 33.2314C5.28967 33.4054 5.21701 33.4683 5.0281 33.4683C3.34724 33.4586 1.67122 33.4634 -0.00964355 33.4634C4.44073e-05 33.3136 4.44073e-05 33.1685 4.44073e-05 33.0235ZM9.7752 14.6046C10.4776 14.6675 10.8845 14.2952 11.0346 13.6716C11.2575 12.7579 11.4318 11.8345 11.6208 10.9112C11.7903 10.0797 11.9647 9.25298 12.1245 8.42147C12.2408 7.82685 12.4297 7.24672 12.4006 6.62309C12.3813 6.19283 12.0858 5.94628 11.7079 5.95112C11.5239 5.95112 11.3011 5.89794 11.1654 5.98496C11.0298 6.07198 11.0685 6.31369 11.0346 6.49256C10.7827 7.69148 10.5163 8.88073 10.2693 10.0797C9.98349 11.4478 9.71707 12.8159 9.43612 14.184C9.35377 14.6046 9.34408 14.6046 9.7752 14.6046Z" fill="#1DB954"/>
<path d="M39.0086 13.4734C39.12 13.1301 39.1345 12.8255 39.183 12.5258C39.2847 11.9264 39.3767 11.3269 39.4591 10.7274C39.5996 9.73156 39.8757 8.76469 40.0646 7.77365C40.2244 6.94214 40.423 6.1203 40.6071 5.29362C40.8299 4.27358 41.0528 3.25836 41.2707 2.23831C41.387 1.71137 41.4984 1.17959 41.6098 0.652646C41.634 0.531787 41.7261 0.541455 41.8181 0.541455C42.133 0.541455 42.4478 0.541455 42.7627 0.541455C43.9591 0.541455 45.1508 0.541455 46.3472 0.541455C46.4925 0.541455 46.5604 0.526952 46.5168 0.739664C46.2552 1.94342 46.0033 3.14717 45.7369 4.35093C45.4075 5.84474 45.1217 7.34822 44.8068 8.84687C44.5792 9.92977 44.3224 11.003 44.0899 12.0859C43.838 13.2751 43.6055 14.4692 43.3536 15.6585C43.1357 16.6785 42.8983 17.6937 42.6852 18.7138C42.4672 19.7435 42.2637 20.7732 42.0458 21.8029C41.8762 22.6103 41.6922 23.4079 41.5178 24.2153C41.3385 25.0565 41.1593 25.9025 40.9849 26.7485C40.6749 28.2133 40.3794 29.6829 40.0597 31.1477C39.895 31.8922 39.7303 32.6319 39.585 33.3812C39.556 33.5359 39.4494 33.4682 39.3816 33.4682C38.374 33.4731 37.3616 33.4731 36.3541 33.4731C36.0489 33.4731 35.7389 33.4682 35.4337 33.4779C35.3126 33.4827 35.269 33.4489 35.269 33.3184C35.269 31.9938 35.332 30.6691 35.3369 29.3397C35.3369 28.9288 35.3659 28.5082 35.3659 28.0924C35.3659 26.7823 35.4047 25.4722 35.4337 24.1621C35.4531 23.3016 35.4095 22.4411 35.4725 21.5854C35.5403 20.7007 35.4725 19.816 35.5209 18.9362C35.5403 18.6026 35.5597 18.269 35.5209 17.9258C35.4531 18.3125 35.3805 18.7041 35.3175 19.0909C35.1673 20.0142 35.022 20.9376 34.8185 21.8513C34.6248 22.7408 34.4407 23.6303 34.2518 24.5198C34.0823 25.3078 33.9127 26.1007 33.7432 26.8887C33.5252 27.9232 33.3072 28.9626 33.0844 29.9972C32.8858 30.9254 32.6872 31.8536 32.4789 32.7769C32.4595 32.8688 32.4498 32.9606 32.4256 33.0525C32.3094 33.4634 32.3191 33.4634 31.8879 33.4634C30.4105 33.4634 28.9331 33.4634 27.4266 33.4634C27.5865 32.7141 27.7415 31.9744 27.9013 31.2348C28.0806 30.3984 28.2598 29.5621 28.4342 28.7257C28.7442 27.2609 29.0445 25.7913 29.3594 24.3265C29.6549 22.939 29.9843 21.5564 30.2701 20.1689C30.5994 18.5736 30.9482 16.9783 31.2873 15.3829C31.6118 13.8649 31.9315 12.3469 32.2561 10.829C32.5273 9.54786 32.7938 8.26675 33.0747 6.98565C33.3363 5.7964 33.5543 4.60231 33.8158 3.41306C34.0144 2.50904 34.2131 1.60501 34.3971 0.696155C34.4165 0.594633 34.4601 0.536621 34.586 0.536621C36.0392 0.541455 37.4924 0.541455 38.9456 0.536621C39.12 0.536621 39.0909 0.638143 39.0909 0.739664C39.0909 2.14163 39.1297 3.54359 39.0813 4.94555C38.9989 7.44975 39.0764 9.94911 39.0377 12.4533C39.0328 12.7724 38.965 13.0914 39.0086 13.4734Z" fill="#1DB954"/>
<path d="M27.6301 17.2974C28.2307 17.747 28.5165 18.3271 28.6328 19.0136C28.7732 19.8354 28.5892 20.6186 28.4196 21.4066C28.2307 22.2961 28.0418 23.1856 27.8529 24.0751C27.6737 24.926 27.4847 25.7768 27.3055 26.6277C27.1166 27.5172 26.9277 28.4067 26.7388 29.2962C26.5595 30.1471 26.3706 30.9979 26.1914 31.8488C26.0994 32.2839 25.9976 32.7238 25.9201 33.1637C25.8814 33.3813 25.8184 33.4731 25.5665 33.4635C24.6365 33.4441 23.7113 33.4538 22.7812 33.4538C22.0401 33.4538 21.299 33.4538 20.5336 33.4538C20.8436 32.0277 21.1537 30.6209 21.454 29.2141C21.7398 27.8798 22.0014 26.5407 22.2871 25.2064C22.5148 24.1235 22.7715 23.0503 22.9992 21.9674C23.1009 21.4936 23.1881 21.015 23.0573 20.5316C22.9847 20.2657 22.7715 20.1158 22.4954 20.111C22.2775 20.111 22.0014 20.0336 21.8609 20.14C21.7349 20.2318 21.7495 20.5219 21.7059 20.7298C21.4491 21.9674 21.1924 23.2001 20.9308 24.4377C20.7129 25.4723 20.4803 26.5068 20.2624 27.5414C20.0105 28.7451 19.7731 29.9537 19.5261 31.1623C19.3808 31.8681 19.2306 32.5739 19.0804 33.2798C19.0562 33.3909 19.0175 33.4586 18.8625 33.4586C17.2252 33.449 15.5831 33.449 13.9458 33.4586C13.7375 33.4586 13.7375 33.3523 13.7666 33.2217C13.97 32.2887 14.1832 31.3557 14.3866 30.4226C14.5901 29.4799 14.779 28.5324 14.9776 27.5897C15.2828 26.1297 15.5879 24.6746 15.8979 23.2146C16.145 22.0592 16.4114 20.9038 16.6584 19.7484C16.9103 18.5591 17.1477 17.3651 17.3996 16.1758C17.5788 15.325 17.7774 14.4789 17.9566 13.6281C18.1455 12.7483 18.3248 11.8636 18.5137 10.9789C18.6784 10.1909 18.8528 9.39804 19.0175 8.61004C19.2354 7.57549 19.4534 6.53611 19.6762 5.50155C19.8603 4.65071 20.0492 3.79986 20.2285 2.94902C20.3883 2.21419 20.5433 1.47454 20.6886 0.734881C20.7177 0.580182 20.7661 0.522169 20.9308 0.522169C23.0283 0.527004 25.1306 0.497998 27.228 0.536673C28.1677 0.551176 29.0203 0.88958 29.7566 1.51321C30.706 2.31571 31.2437 3.3406 31.4762 4.52985C31.5876 5.10997 31.6167 5.7046 31.5585 6.30889C31.4326 7.59966 31.079 8.83726 30.8174 10.099C30.5122 11.5638 30.2071 13.0335 29.8922 14.4983C29.7275 15.2718 29.3836 15.9583 28.8168 16.5094C28.4778 16.8429 28.0902 17.104 27.6301 17.2974ZM23.5466 14.3629C24.1908 14.3629 24.5299 14.1502 24.7334 13.6184C24.7963 13.4492 24.8351 13.2752 24.8738 13.0963C25.0627 12.2455 25.242 11.3946 25.426 10.5438C25.6198 9.64943 25.8233 8.75024 25.9976 7.85105C26.0751 7.4498 26.2205 7.05822 26.2059 6.64246C26.1914 6.29439 26.0122 6.09135 25.6682 5.98982C25.4212 5.91731 25.1742 5.96565 24.9271 5.95115C24.8399 5.94631 24.8109 6.00433 24.7963 6.08651C24.5396 7.38212 24.2974 8.67772 24.0164 9.96366C23.7307 11.2738 23.4594 12.5887 23.1978 13.9037C23.1688 14.0487 23.0719 14.2469 23.13 14.3242C23.2123 14.4306 23.4206 14.3484 23.5466 14.3629Z" fill="#1DB954"/>
<path d="M43.9446 33.4585C45.8919 24.2877 47.8391 15.1315 49.7913 5.95105C49.4377 5.95105 49.0937 5.95105 48.7498 5.95105C48.217 5.95105 47.6841 5.94621 47.1513 5.95588C47.0108 5.95588 46.9914 5.94138 47.0254 5.78668C47.3354 4.37988 47.6163 2.96342 47.9506 1.56146C48.0135 1.29557 48.0474 1.02001 48.1056 0.749284C48.1298 0.628425 48.1588 0.531738 48.3381 0.531738C51.8887 0.541407 55.4393 0.536573 58.9948 0.536573C59.019 0.536573 59.0433 0.541407 59.0869 0.546241C58.8883 1.46477 58.6848 2.3833 58.4911 3.29699C58.3167 4.10432 58.152 4.90683 57.9873 5.71416C57.9534 5.88337 57.8904 5.95588 57.6966 5.95588C56.9071 5.94138 56.1127 5.95588 55.3231 5.94621C55.1681 5.94621 55.11 6.00906 55.0809 6.12992C54.8823 7.06778 54.6885 8.00565 54.4948 8.93868C54.3446 9.64449 54.1944 10.3503 54.0443 11.0561C53.8554 11.9553 53.6713 12.8545 53.4775 13.7489C53.2935 14.6045 53.0949 15.4602 52.9108 16.3207C52.7219 17.2006 52.5475 18.0901 52.3634 18.97C52.2181 19.6661 52.0631 20.3671 51.9129 21.0632C51.724 21.9624 51.5351 22.8568 51.3462 23.756C51.1621 24.6068 50.9684 25.4528 50.7891 26.3037C50.6002 27.1835 50.421 28.0682 50.2321 28.9529C50.0674 29.7409 49.8978 30.5337 49.7283 31.3217C49.5878 31.9744 49.4522 32.627 49.3117 33.2748C49.2923 33.3667 49.273 33.4537 49.1373 33.4537C47.4129 33.4585 45.6836 33.4585 43.9446 33.4585Z" fill="#1DB954"/>
</g>
<defs>
<clipPath id="clip0_751_3048">
<rect width="71.4971" height="34" fill="white"/>
</clipPath>
</defs>
</svg>
