<svg xmlns="http://www.w3.org/2000/svg" version="1.0" width="900.000000pt" height="666.000000pt" viewBox="0 0 900.000000 666.000000" preserveAspectRatio="xMidYMid meet">

<g transform="translate(0.000000,666.000000) scale(0.100000,-0.100000)" fill="#000000" stroke="none">
<path d="M3328 5379 l-3 -1279 -169 260 c-93 143 -170 260 -171 260 -1 0 -51 -110 -111 -245 -60 -135 -111 -245 -114 -245 -4 0 -260 1517 -336 1985 -34 211 -83 497 -86 500 -2 2 -55 -16 -118 -39 -63 -24 -198 -72 -300 -109 -102 -36 -437 -157 -745 -268 -308 -110 -586 -210 -618 -221 -44 -15 -57 -24 -53 -37 4 -13 73 -392 116 -636 5 -27 48 -266 95 -530 47 -264 90 -502 95 -530 5 -27 43 -241 85 -475 42 -234 80 -447 85 -475 17 -93 179 -997 250 -1395 39 -217 77 -431 85 -475 7 -44 25 -143 39 -220 14 -77 26 -141 26 -142 0 -5 93 -27 375 -89 165 -36 451 -100 635 -141 409 -91 440 -97 444 -92 2 2 61 149 132 326 70 178 131 320 135 315 3 -4 54 -150 114 -324 59 -175 110 -318 114 -318 5 0 189 37 1135 229 l289 59 151 -141 c642 -596 1215 -877 1796 -881 523 -3 1003 226 1427 680 86 92 112 127 162 224 147 284 206 513 205 790 -2 302 -87 586 -265 877 -183 299 -510 630 -933 945 -88 66 -166 123 -175 128 -11 6 -12 12 -5 22 6 7 82 101 170 208 134 163 559 693 778 969 l59 73 -124 125 c-282 285 -456 420 -669 522 -255 121 -483 172 -781 172 -308 0 -550 -55 -826 -186 -197 -94 -357 -202 -500 -339 l-73 -69 0 47 c0 26 7 158 15 294 8 136 16 300 17 365 l3 119 -185 69 c-340 126 -422 157 -915 338 -269 99 -550 202 -622 229 l-133 50 -2 -1279z m-1328 640 c0 -10 556 -3346 563 -3379 2 -8 11 3 20 25 10 22 119 280 244 573 177 417 229 530 238 520 7 -7 167 -265 356 -573 l344 -560 3 615 c1 338 1 1104 0 1703 -2 598 -2 1087 -1 1087 3 0 527 -192 765 -281 103 -38 191 -69 197 -69 13 0 14 25 -4 -263 -14 -229 -25 -428 -60 -1045 -8 -147 -19 -339 -25 -427 -5 -88 -17 -284 -25 -435 -9 -151 -22 -390 -30 -530 -8 -140 -21 -379 -30 -530 -8 -151 -20 -342 -25 -425 -5 -82 -15 -251 -21 -375 -6 -124 -12 -226 -14 -228 -1 -1 -190 -40 -421 -87 -230 -47 -429 -87 -441 -90 -19 -5 -25 6 -66 128 -25 72 -102 299 -172 502 -70 204 -157 459 -193 567 -37 109 -69 198 -72 198 -3 0 -131 -315 -284 -700 -256 -639 -281 -699 -300 -695 -12 3 -191 43 -399 89 -208 46 -381 86 -384 90 -5 4 -52 256 -113 601 -5 28 -50 280 -100 560 -50 281 -127 708 -170 950 -43 242 -124 694 -180 1005 -56 311 -124 692 -152 848 -28 156 -49 284 -47 286 2 2 132 49 289 105 157 56 377 135 490 175 226 82 220 80 220 65z m4730 -774 c141 -20 255 -53 375 -109 99 -46 237 -137 318 -209 l48 -42 -217 -270 c-119 -148 -226 -281 -239 -294 l-23 -24 -42 36 c-58 50 -165 104 -241 122 -311 73 -605 -139 -602 -435 2 -135 67 -265 194 -390 71 -69 72 -71 364 -262 359 -236 577 -409 811 -642 224 -225 324 -357 418 -557 153 -324 151 -641 -8 -973 -43 -92 -66 -125 -131 -194 -569 -604 -1234 -670 -1968 -195 -126 81 -273 193 -406 307 -134 116 -383 357 -379 367 4 9 617 529 625 529 3 0 60 -53 127 -117 479 -462 881 -625 1138 -461 64 40 136 121 177 198 31 57 33 68 29 129 -9 118 -69 220 -223 380 -121 125 -253 238 -611 523 -397 316 -568 467 -720 639 -443 500 -490 923 -153 1372 237 316 582 517 979 572 131 18 230 18 360 0z m-1616 -2192 c88 -107 243 -266 366 -376 76 -68 83 -78 68 -89 -9 -7 -138 -116 -288 -243 -149 -126 -275 -231 -279 -233 -5 -1 -7 19 -5 45 2 26 8 138 14 248 6 110 17 315 25 455 8 140 15 264 15 274 0 11 2 17 4 15 2 -2 38 -46 80 -96z"/>
</g>
</svg>

